<svg width="64" height="18" viewBox="0 0 64 18" fill="none" xmlns="http://www.w3.org/2000/svg">
<path d="M9.423 4.634C9.603 4.562 9.873 4.481 10.233 4.391C10.611 4.283 10.98 4.229 11.34 4.229C11.988 4.229 12.528 4.328 12.96 4.526C13.392 4.706 13.653 4.985 13.743 5.363C14.067 6.443 14.355 7.433 14.607 8.333C14.877 9.215 15.129 10.079 15.363 10.925C15.615 11.753 15.858 12.626 16.092 13.544H16.227C16.479 12.032 16.704 10.592 16.902 9.224C17.1 7.856 17.298 6.497 17.496 5.147C17.694 3.797 17.874 2.402 18.036 0.961999C18.594 0.656 19.188 0.503 19.818 0.503C20.394 0.503 20.88 0.629 21.276 0.881C21.69 1.115 21.897 1.52 21.897 2.096C21.897 2.492 21.852 3.05 21.762 3.77C21.672 4.472 21.555 5.282 21.411 6.2C21.267 7.118 21.096 8.072 20.898 9.062C20.718 10.052 20.52 11.024 20.304 11.978C20.088 12.932 19.863 13.796 19.629 14.57C19.413 15.344 19.215 15.974 19.035 16.46C18.783 16.64 18.405 16.811 17.901 16.973C17.397 17.117 16.866 17.189 16.308 17.189C15.606 17.189 15.003 17.09 14.499 16.892C14.013 16.676 13.707 16.397 13.581 16.055C13.401 15.533 13.194 14.912 12.96 14.192C12.744 13.454 12.51 12.662 12.258 11.816C12.006 10.952 11.763 10.061 11.529 9.143C11.313 10.043 11.079 10.952 10.827 11.87C10.593 12.77 10.359 13.625 10.125 14.435C9.891 15.227 9.684 15.902 9.504 16.46C9.27 16.64 8.919 16.811 8.451 16.973C8.001 17.117 7.506 17.189 6.966 17.189C6.282 17.189 5.661 17.09 5.103 16.892C4.563 16.676 4.212 16.397 4.05 16.055C3.87 15.641 3.654 15.011 3.402 14.165C3.168 13.319 2.916 12.356 2.646 11.276C2.394 10.178 2.142 9.035 1.89 7.847C1.656 6.659 1.44 5.498 1.242 4.364C1.044 3.23 0.891 2.213 0.783 1.313C0.999 1.115 1.296 0.935 1.674 0.773C2.052 0.593 2.466 0.503 2.916 0.503C3.492 0.503 3.96 0.629 4.32 0.881C4.698 1.133 4.932 1.565 5.022 2.177C5.31 3.797 5.544 5.201 5.724 6.389C5.922 7.559 6.093 8.576 6.237 9.44C6.381 10.304 6.507 11.069 6.615 11.735C6.741 12.383 6.867 12.986 6.993 13.544H7.128C7.308 12.806 7.479 12.113 7.641 11.465C7.821 10.817 8.001 10.16 8.181 9.494C8.379 8.828 8.577 8.108 8.775 7.334C8.973 6.56 9.189 5.66 9.423 4.634ZM24.778 5.687H28.774V16.973C28.612 17.009 28.351 17.054 27.991 17.108C27.649 17.162 27.298 17.189 26.938 17.189C26.146 17.189 25.588 17.054 25.264 16.784C24.94 16.496 24.778 16.001 24.778 15.299V5.687ZM28.774 10.628H24.778V0.610999C24.958 0.574999 25.228 0.529999 25.588 0.475999C25.948 0.403999 26.299 0.367998 26.641 0.367998C27.397 0.367998 27.937 0.502999 28.261 0.773C28.603 1.025 28.774 1.52 28.774 2.258V10.628ZM36.6301 8.36H38.4931C39.4111 8.36 40.1491 8.153 40.7071 7.739C41.2831 7.325 41.5711 6.704 41.5711 5.876C41.5711 5.084 41.3011 4.481 40.7611 4.067C40.2211 3.635 39.3931 3.419 38.2771 3.419C37.9711 3.419 37.6831 3.437 37.4131 3.473C37.1431 3.491 36.8821 3.527 36.6301 3.581V8.36ZM38.8441 11.438H32.6881V2.069C32.6881 1.709 32.7871 1.439 32.9851 1.259C33.1831 1.061 33.4441 0.898999 33.7681 0.773C34.3621 0.574999 35.0551 0.430999 35.8471 0.340999C36.6391 0.250999 37.4671 0.205999 38.3311 0.205999C40.7431 0.205999 42.5611 0.718999 43.7851 1.745C45.0091 2.753 45.6211 4.121 45.6211 5.849C45.6211 6.929 45.3241 7.892 44.7301 8.738C44.1541 9.584 43.3621 10.25 42.3541 10.736C41.3461 11.204 40.1761 11.438 38.8441 11.438ZM38.1421 10.493L41.6791 9.629C42.0931 10.205 42.5251 10.781 42.9751 11.357C43.4251 11.915 43.8571 12.464 44.2711 13.004C44.6851 13.526 45.0541 14.012 45.3781 14.462C45.7201 14.912 45.9811 15.281 46.1611 15.569C46.0171 16.091 45.7381 16.505 45.3241 16.811C44.9101 17.099 44.4601 17.243 43.9741 17.243C43.3261 17.243 42.8311 17.099 42.4891 16.811C42.1471 16.523 41.8231 16.145 41.5171 15.677L38.1421 10.493ZM32.6881 9.953H36.6841V16.973C36.5041 17.009 36.2431 17.054 35.9011 17.108C35.5591 17.162 35.1991 17.189 34.8211 17.189C34.0471 17.189 33.4981 17.054 33.1741 16.784C32.8501 16.496 32.6881 16.001 32.6881 15.299V9.953ZM55.7016 3.932H55.5396C55.3416 4.508 55.1166 5.165 54.8646 5.903C54.6306 6.623 54.3786 7.379 54.1086 8.171C53.8386 8.945 53.5866 9.719 53.3526 10.493L52.8936 12.788C52.7856 13.13 52.6776 13.499 52.5696 13.895C52.4616 14.273 52.3536 14.651 52.2456 15.029C52.1376 15.389 52.0296 15.74 51.9216 16.082C51.8316 16.424 51.7506 16.73 51.6786 17C51.4806 17.072 51.2556 17.135 51.0036 17.189C50.7696 17.243 50.4816 17.27 50.1396 17.27C49.4196 17.27 48.8616 17.135 48.4656 16.865C48.0876 16.595 47.8986 16.217 47.8986 15.731C47.8986 15.497 47.9256 15.272 47.9796 15.056C48.0516 14.822 48.1326 14.552 48.2226 14.246C48.3846 13.67 48.6096 12.932 48.8976 12.032C49.2036 11.114 49.5366 10.133 49.8966 9.089C50.2566 8.045 50.6166 7.01 50.9766 5.984C51.3546 4.94 51.7056 3.986 52.0296 3.122C52.3536 2.24 52.6146 1.538 52.8126 1.016C53.0646 0.872 53.4516 0.736999 53.9736 0.610999C54.5136 0.466999 55.0446 0.395 55.5666 0.395C56.3226 0.395 56.9976 0.502999 57.5916 0.718999C58.1856 0.934999 58.5546 1.286 58.6986 1.772C59.0586 2.726 59.4366 3.833 59.8326 5.093C60.2466 6.353 60.6606 7.667 61.0746 9.035C61.5066 10.403 61.9116 11.735 62.2896 13.031C62.6856 14.309 63.0276 15.47 63.3156 16.514C63.1356 16.712 62.8566 16.883 62.4786 17.027C62.1186 17.171 61.6956 17.243 61.2096 17.243C60.4716 17.243 59.9496 17.117 59.6436 16.865C59.3556 16.613 59.1396 16.217 58.9956 15.677L58.0776 12.572L57.6456 10.358C57.4116 9.548 57.1686 8.756 56.9166 7.982C56.6826 7.19 56.4576 6.452 56.2416 5.768C56.0436 5.066 55.8636 4.454 55.7016 3.932ZM51.1386 13.328L52.6776 10.196H59.0766L59.6166 13.328H51.1386Z" fill="#FB660D"/>
</svg>
